<?xml version="1.0" standalone="no"?>
<!DOCTYPE svg PUBLIC "-//W3C//DTD SVG 20010904//EN"
 "http://www.w3.org/TR/2001/REC-SVG-20010904/DTD/svg10.dtd">
<svg version="1.0" xmlns="http://www.w3.org/2000/svg"
 width="1920.000000pt" height="1080.000000pt" viewBox="0 0 1920.000000 1080.000000"
 preserveAspectRatio="xMidYMid meet">

<g transform="translate(0.000000,1080.000000) scale(0.100000,-0.100000)"
fill="#C21804" stroke="none">
<path d="M6450 7593 c-778 -79 -1429 -528 -1775 -1224 -365 -737 -283 -1626
211 -2285 375 -501 951 -820 1580 -875 1099 -96 2105 652 2334 1736 36 171 44
251 44 450 0 221 -14 348 -64 546 -67 269 -201 551 -369 777 -81 108 -289 322
-394 405 -331 261 -751 430 -1161 467 -97 9 -333 11 -406 3z m158 -866 c8 -6
25 -32 36 -57 20 -44 21 -63 26 -625 5 -527 7 -583 22 -607 34 -52 113 -45
145 14 17 31 18 76 20 621 1 323 5 592 8 597 3 6 26 10 50 10 32 0 52 -7 72
-24 l28 -24 5 -579 c4 -466 8 -583 19 -605 18 -36 64 -52 109 -37 62 21 62 17
62 616 0 567 5 639 46 684 10 12 30 25 42 30 32 12 94 -5 129 -36 l28 -24 -35
-29 -35 -30 -6 -568 c-3 -350 -10 -581 -16 -599 -37 -109 -103 -177 -189 -196
-30 -7 -54 -17 -54 -23 0 -27 41 -176 60 -218 44 -99 121 -180 215 -227 171
-84 366 -60 485 59 92 91 130 194 130 356 0 270 -139 519 -367 657 -73 45 -92
78 -74 136 13 46 75 105 139 133 71 32 125 22 209 -37 222 -158 384 -409 445
-690 7 -36 13 -124 12 -220 0 -187 -19 -276 -85 -411 -163 -333 -538 -483
-909 -362 -76 24 -161 66 -210 103 -64 47 -165 153 -200 209 -19 31 -37 56
-40 56 -3 0 -16 -17 -30 -37 -104 -153 -268 -268 -462 -324 -104 -30 -311 -37
-437 -15 -454 79 -885 426 -1045 841 -49 129 -68 229 -68 370 1 323 153 548
427 631 77 23 269 24 371 1 287 -63 561 -272 684 -522 49 -100 71 -191 71
-302 0 -72 -4 -93 -26 -139 -45 -92 -120 -131 -231 -121 -69 7 -124 29 -124
51 0 8 9 33 20 57 38 84 18 242 -43 342 -99 162 -335 287 -540 287 -109 0
-182 -42 -224 -129 -26 -52 -28 -65 -27 -171 0 -96 5 -128 27 -196 67 -203
239 -406 441 -519 154 -86 334 -131 481 -122 110 8 176 26 280 80 146 76 277
235 292 354 l5 48 -62 12 c-109 21 -178 101 -199 233 -7 39 -11 267 -11 578 0
555 -1 569 -54 593 -34 16 -24 33 37 64 54 27 94 28 125 2z"/>
<path d="M14406 6747 c-17 -13 -17 -15 -2 -45 14 -26 16 -74 16 -322 l0 -291
-148 2 c-82 1 -154 -1 -161 -6 -20 -12 -9 -110 16 -143 30 -41 60 -51 181 -58
l112 -7 0 -376 c0 -369 -1 -378 -25 -475 -44 -169 -106 -263 -183 -273 -36 -5
-45 -2 -71 24 -16 16 -34 47 -40 69 -7 24 -11 148 -11 319 0 256 -2 283 -19
311 -24 40 -77 64 -138 64 -83 0 -78 19 -74 -318 l3 -299 -26 -49 c-33 -64
-45 -77 -86 -103 -82 -50 -187 1 -225 108 -20 57 -20 218 0 319 56 279 289
480 530 459 34 -3 66 -2 74 2 21 13 25 84 7 118 -29 58 -60 73 -145 73 -382
-1 -695 -335 -718 -768 -6 -109 -8 -116 -43 -170 -69 -107 -159 -156 -290
-157 -73 0 -93 4 -140 27 -63 31 -98 65 -129 122 l-20 40 76 33 c180 78 314
236 363 428 25 98 25 176 1 254 -24 77 -58 123 -119 158 -42 25 -57 28 -137
28 -80 0 -97 -3 -150 -30 -94 -47 -176 -137 -235 -258 -64 -134 -80 -196 -87
-348 -7 -154 10 -242 69 -361 73 -145 197 -243 358 -284 166 -42 416 21 519
130 l24 26 53 -59 c74 -81 131 -106 249 -106 102 0 149 17 223 81 l42 36 51
-46 c64 -57 135 -81 224 -74 83 7 139 34 214 103 49 46 64 56 72 44 5 -8 9
-17 9 -21 0 -24 77 -89 126 -108 217 -81 423 67 530 382 36 105 33 142 -15
189 -73 73 -116 44 -150 -104 -50 -217 -144 -322 -246 -275 -55 25 -55 22 -55
593 l0 525 193 1 c105 1 243 4 306 8 106 6 115 8 133 31 23 32 43 127 34 164
-6 25 -10 27 -34 21 -43 -11 -82 -13 -364 -20 l-267 -7 -3 296 c-3 280 -4 296
-24 323 -11 15 -36 36 -55 45 -41 22 -147 24 -173 5z m-1551 -1138 c43 -83 -7
-279 -99 -386 -34 -39 -119 -103 -138 -103 -13 0 -9 147 7 234 29 163 83 267
148 284 44 12 65 4 82 -29z"/>
<path d="M11119 5835 c-149 -55 -270 -207 -336 -422 -23 -78 -26 -105 -27
-238 -1 -119 3 -162 17 -210 76 -245 263 -399 502 -412 247 -13 450 104 554
319 52 108 81 241 61 287 -21 52 -101 79 -144 48 -9 -7 -28 -52 -42 -101 -57
-202 -142 -305 -280 -341 -105 -27 -191 -14 -276 42 -36 25 -98 105 -98 127 1
6 40 30 88 53 50 24 111 63 144 92 260 233 296 628 69 744 -45 22 -67 27 -125
26 -39 0 -87 -6 -107 -14z m128 -226 c43 -82 -13 -289 -104 -390 -39 -43 -114
-99 -132 -99 -16 0 -14 122 4 221 21 120 41 180 78 236 49 74 125 90 154 32z"/>
<path d="M9253 5803 c-18 -17 -18 -36 -13 -493 7 -519 8 -529 68 -619 90 -134
306 -181 466 -102 35 17 78 47 96 67 l31 36 40 -42 c23 -23 66 -54 97 -68 49
-23 70 -27 152 -27 52 0 114 6 137 13 66 20 135 73 170 131 58 97 63 142 63
610 l0 419 -27 33 c-32 38 -78 59 -131 59 -79 0 -74 29 -76 -481 -1 -452 -1
-454 -24 -501 -13 -25 -34 -53 -47 -62 -70 -46 -176 -21 -211 50 -18 36 -19
70 -24 469 -5 396 -7 433 -23 459 -35 53 -157 85 -201 53 -16 -12 -17 -44 -16
-467 1 -455 1 -455 -22 -499 -33 -63 -68 -86 -133 -86 -64 0 -100 23 -130 81
-19 37 -20 64 -25 469 -4 359 -7 434 -20 453 -35 53 -157 81 -197 45z"/>
</g>
</svg>
