<?xml version="1.0" standalone="no"?>
<!DOCTYPE svg PUBLIC "-//W3C//DTD SVG 20010904//EN"
 "http://www.w3.org/TR/2001/REC-SVG-20010904/DTD/svg10.dtd">
<svg version="1.0" xmlns="http://www.w3.org/2000/svg"
 width="990.000000pt" height="990.000000pt" viewBox="0 0 990.000000 990.000000"
 preserveAspectRatio="xMidYMid meet">

<g transform="translate(0.000000,990.000000) scale(0.100000,-0.100000)"
fill="#C21804" stroke="none">
<path d="M4507 9444 c-382 -39 -672 -102 -1014 -218 -400 -137 -739 -304
-1073 -530 -999 -675 -1679 -1701 -1914 -2886 -60 -306 -71 -433 -71 -860 0
-357 2 -411 23 -565 96 -704 314 -1299 694 -1893 407 -639 1024 -1197 1711
-1552 658 -339 1340 -504 2087 -503 580 0 1099 98 1640 310 1017 397 1872
1174 2368 2151 282 555 431 1088 483 1727 15 178 6 643 -15 825 -73 616 -266
1211 -561 1731 -65 114 -242 383 -317 483 -340 451 -799 862 -1288 1156 -581
349 -1203 553 -1902 625 -183 19 -668 18 -851 -1z m101 -2080 c65 -48 113
-150 132 -284 6 -38 10 -539 10 -1205 0 -1228 -1 -1206 53 -1297 34 -59 64
-73 153 -73 84 0 115 16 151 81 55 96 54 74 53 1398 0 671 -1 1226 0 1232 0 6
18 19 40 29 81 36 211 -1 274 -78 l31 -39 5 -1216 c5 -1153 6 -1220 24 -1267
36 -100 91 -145 174 -145 102 0 153 36 193 135 l24 60 5 1215 5 1215 22 65
c65 192 176 243 353 163 71 -32 149 -98 134 -113 -5 -5 -29 -20 -54 -33 -35
-18 -51 -36 -75 -82 l-30 -59 -6 -1170 c-6 -1283 -4 -1232 -66 -1381 -83 -199
-219 -306 -424 -335 -34 -5 -63 -10 -64 -12 -7 -7 37 -221 65 -318 80 -268
223 -472 424 -604 146 -96 272 -138 476 -157 214 -20 397 23 562 134 189 126
320 329 374 582 51 231 17 588 -81 850 -141 380 -377 667 -686 835 -109 59
-123 70 -157 129 -58 99 -18 225 107 344 75 70 160 119 246 142 127 33 203 16
339 -76 338 -228 613 -542 791 -904 126 -256 199 -486 230 -724 140 -1063
-353 -1888 -1245 -2083 -93 -20 -132 -23 -350 -23 -220 0 -256 2 -348 23 -476
107 -874 390 -1113 793 l-41 69 -51 -73 c-309 -442 -748 -705 -1283 -768 -145
-17 -457 -15 -587 5 -627 93 -1226 397 -1688 856 -521 519 -800 1136 -799
1770 1 421 130 778 374 1028 173 178 384 290 658 349 102 22 416 25 553 4 474
-69 928 -306 1267 -660 330 -345 508 -745 508 -1143 0 -223 -92 -414 -240
-501 -25 -14 -75 -34 -110 -43 -144 -37 -434 7 -477 73 -17 25 -16 28 15 87
50 95 63 143 69 252 20 355 -161 687 -492 906 -238 158 -496 245 -760 255
-214 9 -315 -20 -421 -120 -76 -70 -131 -175 -159 -297 -23 -100 -23 -312 0
-445 94 -548 536 -1098 1110 -1380 299 -147 544 -207 840 -208 263 -1 419 35
640 144 227 113 419 278 543 467 92 140 156 320 144 403 -4 26 -8 29 -41 29
-62 0 -173 28 -237 60 -107 52 -198 168 -249 315 -44 128 -45 163 -45 1310 0
709 -4 1113 -11 1155 -5 36 -21 88 -34 117 -19 42 -33 57 -74 80 -28 15 -51
33 -51 39 0 9 44 54 82 83 9 7 48 24 85 37 83 30 168 29 211 -2z"/>
</g>
</svg>
