<?xml version="1.0" standalone="no"?>
<!DOCTYPE svg PUBLIC "-//W3C//DTD SVG 20010904//EN"
 "http://www.w3.org/TR/2001/REC-SVG-20010904/DTD/svg10.dtd">
<svg version="1.0" xmlns="http://www.w3.org/2000/svg"
 width="1069.000000pt" height="460.000000pt" viewBox="0 0 1069.000000 460.000000"
 preserveAspectRatio="xMidYMid meet">

<g transform="translate(0.000000,460.000000) scale(0.100000,-0.100000)"
fill="#C21804" stroke="none">
<path d="M2779 4112 c-54 -22 -109 -61 -109 -78 0 -7 16 -21 36 -33 23 -14 43
-38 57 -68 22 -48 22 -49 27 -893 5 -829 6 -846 27 -907 27 -80 74 -154 120
-189 55 -42 141 -73 201 -74 l52 0 0 -42 c0 -106 -78 -261 -190 -381 -312
-333 -770 -413 -1245 -218 -389 160 -733 517 -844 876 -26 84 -51 238 -51 317
0 170 75 330 184 392 137 79 417 51 651 -63 216 -106 374 -271 447 -466 19
-51 22 -81 22 -205 1 -139 0 -147 -26 -197 -16 -29 -28 -59 -28 -67 0 -38 118
-75 241 -76 224 0 355 173 335 444 -21 278 -136 520 -355 748 -412 429 -1052
595 -1498 388 -338 -157 -520 -508 -500 -964 7 -160 27 -265 78 -419 164 -492
556 -922 1064 -1168 276 -134 483 -187 757 -196 347 -11 584 49 826 210 107
72 252 214 322 317 22 33 44 60 49 60 5 0 25 -29 45 -63 51 -87 158 -210 243
-280 203 -166 444 -261 693 -274 363 -18 662 93 886 331 242 256 350 603 323
1032 -20 299 -112 563 -291 830 -118 177 -371 415 -507 476 -127 58 -334 -31
-405 -174 -47 -93 -27 -165 60 -216 185 -110 294 -206 385 -342 96 -144 172
-330 199 -490 19 -113 17 -321 -4 -405 -61 -242 -229 -420 -442 -471 -89 -21
-251 -21 -341 1 -232 57 -416 233 -498 476 -20 58 -65 247 -65 272 0 2 25 7
55 10 115 12 219 85 274 194 57 115 55 73 61 983 4 667 8 851 18 875 17 38 51
75 80 86 33 13 27 33 -19 63 -119 79 -221 71 -267 -21 -47 -91 -46 -74 -51
-983 l-6 -865 -24 -41 c-30 -53 -60 -69 -127 -68 -63 0 -87 17 -118 84 -21 44
-21 55 -24 908 l-3 862 -34 34 c-51 51 -164 69 -195 31 -8 -9 -11 -273 -10
-887 1 -947 1 -942 -54 -1001 -31 -34 -88 -44 -141 -26 -33 12 -45 23 -67 68
l-28 55 0 805 c0 462 -5 838 -10 881 -11 85 -50 173 -86 197 -37 24 -102 26
-155 5z"/>
<path d="M9402 3180 c-49 -11 -55 -21 -37 -63 12 -30 15 -89 15 -322 l0 -286
-148 2 c-82 1 -154 -1 -161 -6 -20 -12 -9 -110 16 -143 30 -41 60 -51 181 -58
l112 -7 0 -376 c0 -370 0 -377 -25 -470 -29 -109 -55 -172 -91 -218 -70 -92
-174 -76 -203 32 -7 24 -11 149 -11 320 0 260 -1 282 -20 312 -33 55 -125 84
-185 59 l-30 -12 4 -301 c3 -293 2 -301 -19 -344 -12 -24 -36 -59 -53 -77 -85
-89 -220 -48 -262 79 -21 62 -21 223 0 321 57 275 286 474 522 455 55 -4 68
-2 84 14 36 36 15 119 -39 158 -40 28 -149 29 -257 1 -318 -81 -543 -381 -562
-748 -6 -110 -7 -115 -44 -173 -75 -116 -205 -172 -344 -150 -107 18 -171 64
-219 156 l-15 29 98 47 c80 39 112 62 173 123 226 226 251 585 49 704 -41 24
-56 27 -136 27 -79 0 -97 -4 -150 -29 -126 -61 -243 -223 -297 -412 -20 -67
-23 -102 -23 -234 0 -143 2 -161 28 -233 65 -185 182 -304 357 -363 42 -15 83
-19 175 -18 106 0 129 4 195 29 79 29 163 78 193 113 19 21 19 21 77 -39 81
-82 131 -104 245 -104 103 0 152 18 226 84 l42 37 47 -47 c59 -59 132 -84 225
-77 84 7 139 34 213 105 l63 59 15 -33 c41 -86 148 -139 263 -131 93 7 151 36
230 115 53 53 78 89 114 163 55 112 84 213 73 254 -10 40 -68 96 -99 96 -34 0
-62 -38 -77 -103 -51 -218 -122 -327 -212 -327 -45 0 -89 48 -99 106 -4 27 -8
268 -8 535 l-1 486 308 6 307 6 22 25 c26 30 47 124 38 167 -6 26 -10 30 -28
24 -28 -9 -614 -28 -633 -21 -12 4 -14 57 -14 299 0 283 -1 295 -21 321 -38
48 -118 72 -187 56z m-1603 -1129 c58 -58 29 -246 -57 -370 -33 -49 -140 -141
-163 -141 -14 0 -10 149 6 243 25 142 67 230 129 268 39 24 61 24 85 0z"/>
<path d="M6067 2250 c-207 -80 -357 -363 -357 -670 1 -351 237 -611 555 -610
305 1 531 199 586 515 15 85 2 120 -54 145 -31 14 -46 16 -69 8 -35 -12 -40
-22 -67 -121 -52 -191 -144 -299 -286 -334 -73 -18 -163 -9 -229 22 -46 22
-101 77 -126 124 l-19 38 67 27 c128 50 265 177 325 299 52 107 61 147 61 262
1 121 -13 167 -70 234 -64 76 -207 104 -317 61z m108 -186 c26 -10 45 -59 45
-116 0 -105 -45 -224 -117 -307 -31 -37 -117 -101 -135 -101 -13 0 -9 141 7
233 27 153 73 248 135 279 39 20 42 21 65 12z"/>
</g>
</svg>
