<?xml version="1.0" encoding="UTF-8"?>
<!DOCTYPE svg PUBLIC "-//W3C//DTD SVG 1.1//EN" "http://www.w3.org/Graphics/SVG/1.1/DTD/svg11.dtd">
<svg xmlns="http://www.w3.org/2000/svg" version="1.1" width="898px" height="898px" style="shape-rendering:geometricPrecision; text-rendering:geometricPrecision; image-rendering:optimizeQuality; fill-rule:evenodd; clip-rule:evenodd" xmlns:xlink="http://www.w3.org/1999/xlink">
<g><path style="opacity:1" fill="#fefefe" d="M -0.5,-0.5 C 298.833,-0.5 598.167,-0.5 897.5,-0.5C 897.5,298.833 897.5,598.167 897.5,897.5C 598.167,897.5 298.833,897.5 -0.5,897.5C -0.5,598.167 -0.5,298.833 -0.5,-0.5 Z"/></g>
<g><path style="opacity:1" fill="#c21a05" d="M 398.5,95.5 C 398.89,98.8394 399.39,102.173 400,105.5C 400.167,172.001 400.667,238.335 401.5,304.5C 402.051,310.685 404.384,316.019 408.5,320.5C 409.058,321.79 410.058,322.623 411.5,323C 416.02,323.814 420.354,323.647 424.5,322.5C 428.145,320.855 430.812,318.188 432.5,314.5C 434.655,312.383 435.655,309.716 435.5,306.5C 436.83,235.507 436.83,164.507 435.5,93.5C 435.39,91.626 436.056,90.126 437.5,89C 449.811,85.223 459.145,88.723 465.5,99.5C 465.333,167.167 465.5,234.834 466,302.5C 466.191,304.708 466.691,306.708 467.5,308.5C 470.524,322.351 478.857,326.851 492.5,322C 494.373,320.296 496.04,318.463 497.5,316.5C 501.083,313.499 502.416,309.499 501.5,304.5C 502.17,235.598 502.837,166.598 503.5,97.5C 505.472,94.9164 506.472,91.9164 506.5,88.5C 509.85,78.993 516.517,74.8263 526.5,76C 533.659,77.8273 539.826,81.3273 545,86.5C 545.483,87.448 545.649,88.448 545.5,89.5C 540.337,90.662 536.671,93.662 534.5,98.5C 533.4,100.277 532.566,102.277 532,104.5C 531.806,171.845 531.306,239.178 530.5,306.5C 529.539,308.265 529.205,310.265 529.5,312.5C 528.129,314.936 527.129,317.603 526.5,320.5C 520.635,337.266 508.969,347.266 491.5,350.5C 488.833,350.5 486.167,350.5 483.5,350.5C 484.047,355.712 485.047,360.712 486.5,365.5C 488.649,373.423 490.816,381.423 493,389.5C 499.57,405.156 509.403,418.322 522.5,429C 528.111,432.971 534.111,436.138 540.5,438.5C 542.102,440.074 544.102,440.741 546.5,440.5C 550.509,442.421 554.843,443.588 559.5,444C 568.676,444.824 577.676,444.657 586.5,443.5C 613.456,439.358 632.123,424.692 642.5,399.5C 644.834,397.824 645.834,395.491 645.5,392.5C 645.5,392.167 645.5,391.833 645.5,391.5C 646.924,389.485 647.59,387.152 647.5,384.5C 647.5,383.833 647.5,383.167 647.5,382.5C 648.222,382.082 648.722,381.416 649,380.5C 649.497,377.854 649.664,375.187 649.5,372.5C 649.666,362.494 649.5,352.494 649,342.5C 648.567,337.332 647.733,332.332 646.5,327.5C 646.277,323.838 645.277,320.505 643.5,317.5C 632.015,279.175 608.349,251.009 572.5,233C 565.926,225.321 564.759,216.821 569,207.5C 579.762,191.869 594.595,184.369 613.5,185C 632.546,194.79 649.379,207.624 664,223.5C 681.072,242.751 694.239,264.417 703.5,288.5C 703.259,290.898 703.926,292.898 705.5,294.5C 707.396,298.297 708.729,302.297 709.5,306.5C 709.41,309.152 710.076,311.485 711.5,313.5C 714.058,322.937 715.725,332.604 716.5,342.5C 716.676,356.518 716.343,370.518 715.5,384.5C 715.5,386.167 715.5,387.833 715.5,389.5C 714.076,391.515 713.41,393.848 713.5,396.5C 713.5,397.833 713.5,399.167 713.5,400.5C 712.076,402.515 711.41,404.848 711.5,407.5C 710.566,408.568 710.232,409.901 710.5,411.5C 709.076,413.515 708.41,415.848 708.5,418.5C 689.476,473.352 651.143,504.519 593.5,512C 529.909,516.042 481.909,490.876 449.5,436.5C 436.004,457.495 418.671,474.662 397.5,488C 390.928,491.453 384.262,494.62 377.5,497.5C 375.033,497.755 373.033,498.755 371.5,500.5C 356.181,505.22 340.514,507.887 324.5,508.5C 309.124,508.696 293.79,508.029 278.5,506.5C 271.51,506.175 264.843,504.841 258.5,502.5C 256.485,501.076 254.152,500.41 251.5,500.5C 251.167,500.5 250.833,500.5 250.5,500.5C 250.047,499.542 249.381,498.708 248.5,498C 245.522,497.304 242.522,496.804 239.5,496.5C 161.792,468.458 108.792,415.791 80.5,338.5C 80.5905,335.848 79.9238,333.515 78.5,331.5C 72.6787,308.836 71.012,285.836 73.5,262.5C 74.5249,259.026 75.1916,255.36 75.5,251.5C 76.1495,249.565 76.4828,247.565 76.5,245.5C 78.7444,240.767 80.4111,235.767 81.5,230.5C 96.1154,194.733 122.449,172.899 160.5,165C 223.281,159.368 276.448,179.201 320,224.5C 329.087,235.021 336.92,246.354 343.5,258.5C 343.427,260.027 344.094,261.027 345.5,261.5C 349.623,270.203 352.957,279.203 355.5,288.5C 355.259,290.898 355.926,292.898 357.5,294.5C 357.5,295.167 357.5,295.833 357.5,296.5C 357.28,301.1 357.946,305.433 359.5,309.5C 359.881,318.601 359.214,327.601 357.5,336.5C 356.129,338.936 355.129,341.603 354.5,344.5C 349.334,355.827 340.668,362.993 328.5,366C 319.99,366.823 311.656,366.657 303.5,365.5C 301.485,364.076 299.152,363.41 296.5,363.5C 292.378,362.96 289.711,360.794 288.5,357C 289.762,352.978 291.428,349.144 293.5,345.5C 295.655,343.383 296.655,340.716 296.5,337.5C 296.5,336.167 296.5,334.833 296.5,333.5C 297.165,330.686 297.498,327.686 297.5,324.5C 297.646,319.576 296.979,314.909 295.5,310.5C 290.768,290.879 280.768,274.379 265.5,261C 250.409,248.455 233.409,239.622 214.5,234.5C 212.485,233.076 210.152,232.41 207.5,232.5C 206.833,232.5 206.167,232.5 205.5,232.5C 201.79,230.864 197.79,230.198 193.5,230.5C 174.903,227.344 159.403,232.678 147,246.5C 144.962,249.243 143.462,252.243 142.5,255.5C 140.194,259.085 138.861,263.085 138.5,267.5C 135.769,287.853 137.769,307.853 144.5,327.5C 144.66,329.153 145.326,330.486 146.5,331.5C 168.877,381.875 206.21,415.875 258.5,433.5C 260.515,434.924 262.848,435.59 265.5,435.5C 269.239,437.102 273.239,438.102 277.5,438.5C 281.567,440.054 285.9,440.72 290.5,440.5C 291.5,440.5 292.5,440.5 293.5,440.5C 301.99,441.657 310.657,441.824 319.5,441C 325.514,440.881 331.181,439.714 336.5,437.5C 372.635,428.689 398.968,407.689 415.5,374.5C 417.655,372.383 418.655,369.716 418.5,366.5C 419.268,365.737 419.768,364.737 420,363.5C 420.499,359.179 420.666,354.846 420.5,350.5C 417.833,350.5 415.167,350.5 412.5,350.5C 409.941,350.802 407.607,350.468 405.5,349.5C 403.485,348.076 401.152,347.41 398.5,347.5C 388.426,342.592 381.26,334.925 377,324.5C 375.27,320.701 374.104,316.701 373.5,312.5C 373.59,309.848 372.924,307.515 371.5,305.5C 371.5,303.5 371.5,301.5 371.5,299.5C 371.667,234.832 371.5,170.166 371,105.5C 370.768,104.263 370.268,103.263 369.5,102.5C 367.116,95.9476 362.782,91.1142 356.5,88C 363.415,78.5915 372.749,74.5915 384.5,76C 392.874,79.8694 397.541,86.3694 398.5,95.5 Z"/></g>
<g><path style="opacity:1" fill="#d45947" d="M 506.5,88.5 C 506.472,91.9164 505.472,94.9164 503.5,97.5C 503.69,94.145 504.69,91.145 506.5,88.5 Z"/></g>
<g><path style="opacity:1" fill="#f3c9c3" d="M 465.5,99.5 C 466.29,100.609 466.79,101.942 467,103.5C 467.5,171.833 467.667,240.166 467.5,308.5C 466.691,306.708 466.191,304.708 466,302.5C 465.5,234.834 465.333,167.167 465.5,99.5 Z"/></g>
<g><path style="opacity:1" fill="#ebb4ae" d="M 398.5,95.5 C 400.068,97.8109 400.902,100.478 401,103.5C 401.5,170.499 401.667,237.499 401.5,304.5C 400.667,238.335 400.167,172.001 400,105.5C 399.39,102.173 398.89,98.8394 398.5,95.5 Z"/></g>
<g><path style="opacity:1" fill="#efc1bc" d="M 534.5,98.5 C 534.477,100.927 533.977,103.26 533,105.5C 532.667,170.167 532.333,234.833 532,299.5C 531.814,302.036 531.314,304.369 530.5,306.5C 531.306,239.178 531.806,171.845 532,104.5C 532.566,102.277 533.4,100.277 534.5,98.5 Z"/></g>
<g><path style="opacity:1" fill="#e19187" d="M 369.5,102.5 C 370.268,103.263 370.768,104.263 371,105.5C 371.5,170.166 371.667,234.832 371.5,299.5C 370.82,233.98 370.153,168.313 369.5,102.5 Z"/></g>
<g><path style="opacity:1" fill="#d45948" d="M 193.5,230.5 C 197.79,230.198 201.79,230.864 205.5,232.5C 201.295,232.283 197.295,231.617 193.5,230.5 Z"/></g>
<g><path style="opacity:1" fill="#d86757" d="M 207.5,232.5 C 210.152,232.41 212.485,233.076 214.5,234.5C 211.848,234.59 209.515,233.924 207.5,232.5 Z"/></g>
<g><path style="opacity:1" fill="#de7a6b" d="M 81.5,230.5 C 80.4111,235.767 78.7444,240.767 76.5,245.5C 77.1938,240.085 78.8605,235.085 81.5,230.5 Z"/></g>
<g><path style="opacity:1" fill="#df8175" d="M 75.5,251.5 C 75.1916,255.36 74.5249,259.026 73.5,262.5C 73.1164,258.511 73.783,254.845 75.5,251.5 Z"/></g>
<g><path style="opacity:1" fill="#eaa9a0" d="M 142.5,255.5 C 141.744,259.767 140.411,263.767 138.5,267.5C 138.861,263.085 140.194,259.085 142.5,255.5 Z"/></g>
<g><path style="opacity:1" fill="#e1897d" d="M 343.5,258.5 C 344.906,258.973 345.573,259.973 345.5,261.5C 344.094,261.027 343.427,260.027 343.5,258.5 Z"/></g>
<g><path style="opacity:1" fill="#d6604c" d="M 703.5,288.5 C 705.074,290.102 705.741,292.102 705.5,294.5C 703.926,292.898 703.259,290.898 703.5,288.5 Z"/></g>
<g><path style="opacity:1" fill="#e69b91" d="M 355.5,288.5 C 357.074,290.102 357.741,292.102 357.5,294.5C 355.926,292.898 355.259,290.898 355.5,288.5 Z"/></g>
<g><path style="opacity:1" fill="#e18a7d" d="M 357.5,296.5 C 359.054,300.567 359.72,304.9 359.5,309.5C 357.946,305.433 357.28,301.1 357.5,296.5 Z"/></g>
<g><path style="opacity:1" fill="#da7061" d="M 435.5,306.5 C 435.655,309.716 434.655,312.383 432.5,314.5C 433.129,311.603 434.129,308.936 435.5,306.5 Z"/></g>
<g><path style="opacity:1" fill="#e28c80" d="M 371.5,305.5 C 372.924,307.515 373.59,309.848 373.5,312.5C 372.076,310.485 371.41,308.152 371.5,305.5 Z"/></g>
<g><path style="opacity:1" fill="#d65d4a" d="M 501.5,304.5 C 502.416,309.499 501.083,313.499 497.5,316.5C 499.65,312.704 500.983,308.704 501.5,304.5 Z"/></g>
<g><path style="opacity:1" fill="#d96d5e" d="M 709.5,306.5 C 710.924,308.515 711.59,310.848 711.5,313.5C 710.076,311.485 709.41,309.152 709.5,306.5 Z"/></g>
<g><path style="opacity:1" fill="#ebaea6" d="M 529.5,312.5 C 529.655,315.716 528.655,318.383 526.5,320.5C 527.129,317.603 528.129,314.936 529.5,312.5 Z"/></g>
<g><path style="opacity:1" fill="#e08477" d="M 643.5,317.5 C 645.277,320.505 646.277,323.838 646.5,327.5C 644.723,324.495 643.723,321.162 643.5,317.5 Z"/></g>
<g><path style="opacity:1" fill="#f0c0ba" d="M 408.5,320.5 C 413.716,321.969 419.05,322.635 424.5,322.5C 420.354,323.647 416.02,323.814 411.5,323C 410.058,322.623 409.058,321.79 408.5,320.5 Z"/></g>
<g><path style="opacity:1" fill="#d66253" d="M 295.5,310.5 C 296.979,314.909 297.646,319.576 297.5,324.5C 297.498,327.686 297.165,330.686 296.5,333.5C 296.477,325.817 296.143,318.15 295.5,310.5 Z"/></g>
<g><path style="opacity:1" fill="#e5968c" d="M 144.5,327.5 C 146.104,328.287 146.771,329.62 146.5,331.5C 145.326,330.486 144.66,329.153 144.5,327.5 Z"/></g>
<g><path style="opacity:1" fill="#e39186" d="M 78.5,331.5 C 79.9238,333.515 80.5905,335.848 80.5,338.5C 79.0762,336.485 78.4095,334.152 78.5,331.5 Z"/></g>
<g><path style="opacity:1" fill="#eaa9a1" d="M 357.5,336.5 C 357.655,339.716 356.655,342.383 354.5,344.5C 355.129,341.603 356.129,338.936 357.5,336.5 Z"/></g>
<g><path style="opacity:1" fill="#d76353" d="M 296.5,337.5 C 296.655,340.716 295.655,343.383 293.5,345.5C 294.129,342.603 295.129,339.936 296.5,337.5 Z"/></g>
<g><path style="opacity:1" fill="#d6604f" d="M 398.5,347.5 C 401.152,347.41 403.485,348.076 405.5,349.5C 402.848,349.59 400.515,348.924 398.5,347.5 Z"/></g>
<g><path style="opacity:1" fill="#e0887d" d="M 412.5,350.5 C 415.167,350.5 417.833,350.5 420.5,350.5C 420.666,354.846 420.499,359.179 420,363.5C 419.768,364.737 419.268,365.737 418.5,366.5C 419.254,361.537 419.587,356.537 419.5,351.5C 416.941,351.802 414.607,351.468 412.5,350.5 Z"/></g>
<g><path style="opacity:1" fill="#e8a9a1" d="M 716.5,342.5 C 717.166,348.157 717.499,353.99 717.5,360C 717.702,368.392 717.035,376.559 715.5,384.5C 716.343,370.518 716.676,356.518 716.5,342.5 Z"/></g>
<g><path style="opacity:1" fill="#e69b91" d="M 491.5,350.5 C 489.369,351.314 487.036,351.814 484.5,352C 485.675,356.389 486.341,360.889 486.5,365.5C 485.047,360.712 484.047,355.712 483.5,350.5C 486.167,350.5 488.833,350.5 491.5,350.5 Z"/></g>
<g><path style="opacity:1" fill="#d86959" d="M 296.5,363.5 C 299.152,363.41 301.485,364.076 303.5,365.5C 300.848,365.59 298.515,364.924 296.5,363.5 Z"/></g>
<g><path style="opacity:1" fill="#dd7869" d="M 418.5,366.5 C 418.655,369.716 417.655,372.383 415.5,374.5C 416.129,371.603 417.129,368.936 418.5,366.5 Z"/></g>
<g><path style="opacity:1" fill="#d76352" d="M 649.5,372.5 C 649.664,375.187 649.497,377.854 649,380.5C 648.722,381.416 648.222,382.082 647.5,382.5C 647.753,378.96 648.419,375.627 649.5,372.5 Z"/></g>
<g><path style="opacity:1" fill="#db7264" d="M 647.5,384.5 C 647.59,387.152 646.924,389.485 645.5,391.5C 645.41,388.848 646.076,386.515 647.5,384.5 Z"/></g>
<g><path style="opacity:1" fill="#d55d4b" d="M 645.5,392.5 C 645.834,395.491 644.834,397.824 642.5,399.5C 642.935,396.843 643.935,394.509 645.5,392.5 Z"/></g>
<g><path style="opacity:1" fill="#e1897d" d="M 715.5,389.5 C 715.59,392.152 714.924,394.485 713.5,396.5C 713.41,393.848 714.076,391.515 715.5,389.5 Z"/></g>
<g><path style="opacity:1" fill="#e7a097" d="M 713.5,400.5 C 713.59,403.152 712.924,405.485 711.5,407.5C 711.41,404.848 712.076,402.515 713.5,400.5 Z"/></g>
<g><path style="opacity:1" fill="#e69b90" d="M 710.5,411.5 C 710.59,414.152 709.924,416.485 708.5,418.5C 708.41,415.848 709.076,413.515 710.5,411.5 Z"/></g>
<g><path style="opacity:1" fill="#edb1a9" d="M 258.5,433.5 C 261.152,433.41 263.485,434.076 265.5,435.5C 262.848,435.59 260.515,434.924 258.5,433.5 Z"/></g>
<g><path style="opacity:1" fill="#eeb7b0" d="M 277.5,438.5 C 282.1,438.28 286.433,438.946 290.5,440.5C 285.9,440.72 281.567,440.054 277.5,438.5 Z"/></g>
<g><path style="opacity:1" fill="#efbcb4" d="M 540.5,438.5 C 542.898,438.259 544.898,438.926 546.5,440.5C 544.102,440.741 542.102,440.074 540.5,438.5 Z"/></g>
<g><path style="opacity:1" fill="#f1c7c2" d="M 336.5,437.5 C 331.181,439.714 325.514,440.881 319.5,441C 310.657,441.824 301.99,441.657 293.5,440.5C 307.939,440.774 322.272,439.774 336.5,437.5 Z"/></g>
<g><path style="opacity:1" fill="#f2cac5" d="M 546.5,440.5 C 559.693,443.095 573.026,444.095 586.5,443.5C 577.676,444.657 568.676,444.824 559.5,444C 554.843,443.588 550.509,442.421 546.5,440.5 Z"/></g>
<g><path style="opacity:1" fill="#cf4a35" d="M 239.5,496.5 C 242.522,496.804 245.522,497.304 248.5,498C 249.381,498.708 250.047,499.542 250.5,500.5C 246.605,499.538 242.939,498.204 239.5,496.5 Z"/></g>
<g><path style="opacity:1" fill="#f1bdb6" d="M 377.5,497.5 C 375.967,499.245 373.967,500.245 371.5,500.5C 373.033,498.755 375.033,497.755 377.5,497.5 Z"/></g>
<g><path style="opacity:1" fill="#d86756" d="M 251.5,500.5 C 254.152,500.41 256.485,501.076 258.5,502.5C 255.848,502.59 253.515,501.924 251.5,500.5 Z"/></g>
<g><path style="opacity:1" fill="#d25544" d="M 278.5,506.5 C 293.79,508.029 309.124,508.696 324.5,508.5C 315.009,509.658 305.342,509.825 295.5,509C 289.616,508.685 283.949,507.851 278.5,506.5 Z"/></g>
<g><path style="opacity:1" fill="#c31d08" d="M 756.5,538.5 C 756.892,540.179 757.392,541.846 758,543.5C 758.5,566.498 758.667,589.498 758.5,612.5C 764.69,612.823 770.69,612.49 776.5,611.5C 795.851,611.675 815.184,611.175 834.5,610C 836.451,607.935 838.118,608.102 839.5,610.5C 840.072,617.759 839.072,624.759 836.5,631.5C 835.404,633.103 834.07,634.603 832.5,636C 822.506,636.5 812.506,636.666 802.5,636.5C 787.833,636.5 773.167,636.5 758.5,636.5C 758.333,679.168 758.5,721.835 759,764.5C 759.278,765.416 759.778,766.082 760.5,766.5C 763.804,773.108 769.137,775.275 776.5,773C 782.974,768.226 787.641,762.06 790.5,754.5C 792.213,753.365 792.88,751.698 792.5,749.5C 793.838,744.148 795.171,738.815 796.5,733.5C 798.074,731.898 798.741,729.898 798.5,727.5C 801.524,722.357 805.857,721.19 811.5,724C 813.373,725.704 815.04,727.537 816.5,729.5C 816.427,731.027 817.094,732.027 818.5,732.5C 818.569,737.616 817.902,742.616 816.5,747.5C 815.262,749.214 814.595,751.214 814.5,753.5C 812.935,755.509 811.935,757.843 811.5,760.5C 805.59,776.24 795.257,788.074 780.5,796C 767.634,800.168 755.301,799.168 743.5,793C 739.614,788.62 735.947,784.12 732.5,779.5C 724.946,789.609 714.946,795.609 702.5,797.5C 696.131,797.653 689.797,797.32 683.5,796.5C 680.738,795.62 678.071,794.454 675.5,793C 672.289,789.958 669.289,786.791 666.5,783.5C 650.005,800.181 631.338,803.014 610.5,792C 606.012,787.678 601.679,783.178 597.5,778.5C 576.732,796.858 552.732,802.691 525.5,796C 506.009,788.342 492.343,774.842 484.5,755.5C 484.204,753.597 483.537,751.93 482.5,750.5C 480.349,745.072 479.349,739.406 479.5,733.5C 479.26,721.438 479.927,709.438 481.5,697.5C 483.277,694.495 484.277,691.162 484.5,687.5C 490.834,667.658 503.167,652.825 521.5,643C 524.824,642.057 528.157,641.224 531.5,640.5C 536.87,640.392 542.203,640.725 547.5,641.5C 565.115,649.707 572.782,663.707 570.5,683.5C 569.343,686.273 568.676,689.273 568.5,692.5C 567.699,694.042 567.366,695.708 567.5,697.5C 566.129,699.936 565.129,702.603 564.5,705.5C 555.212,727.454 539.212,742.12 516.5,749.5C 515.369,751.074 515.202,752.741 516,754.5C 520.516,762.521 527.016,768.187 535.5,771.5C 536.263,772.268 537.263,772.768 538.5,773C 545.5,773.667 552.5,773.667 559.5,773C 560.737,772.768 561.737,772.268 562.5,771.5C 572.873,768.292 580.707,761.959 586,752.5C 587,750.5 588,748.5 589,746.5C 589.352,736.81 590.019,727.144 591,717.5C 591.21,715.942 591.71,714.609 592.5,713.5C 594.744,708.767 596.411,703.767 597.5,698.5C 598.075,695.088 599.408,692.088 601.5,689.5C 602.906,689.027 603.573,688.027 603.5,686.5C 619.013,658.067 643.013,642.733 675.5,640.5C 683.359,639.115 689.692,641.449 694.5,647.5C 694.927,650.01 695.593,652.343 696.5,654.5C 696.937,657.807 696.27,660.807 694.5,663.5C 662.49,660.562 639.823,673.562 626.5,702.5C 624.358,705.8 623.025,709.467 622.5,713.5C 621.076,715.515 620.41,717.848 620.5,720.5C 620.5,721.167 620.5,721.833 620.5,722.5C 619.037,728.434 618.37,734.601 618.5,741C 618.281,746.432 618.948,751.599 620.5,756.5C 621.592,761.251 623.925,765.251 627.5,768.5C 628.673,770.504 630.34,772.004 632.5,773C 637.02,773.814 641.354,773.647 645.5,772.5C 648.989,771.523 651.823,769.523 654,766.5C 656.682,763.135 658.849,759.469 660.5,755.5C 661.789,730.984 661.789,706.317 660.5,681.5C 661.249,679.754 662.583,678.754 664.5,678.5C 675.648,676.265 684.148,679.931 690,689.5C 690.333,714.167 690.667,738.833 691,763.5C 694.862,773.762 701.695,776.262 711.5,771C 715.467,766.23 718.8,761.063 721.5,755.5C 723.655,753.383 724.655,750.716 724.5,747.5C 725.512,743.484 726.512,739.484 727.5,735.5C 728.924,733.485 729.59,731.152 729.5,728.5C 729.5,697.833 729.5,667.167 729.5,636.5C 723.5,636.5 717.5,636.5 711.5,636.5C 700.842,638.092 694.009,633.759 691,623.5C 690.333,619.833 690.333,616.167 691,612.5C 691.5,612 692,611.5 692.5,611C 704.828,610.933 717.161,611.099 729.5,611.5C 730.663,588.337 730.83,565.004 730,541.5C 729.626,539.509 728.793,537.842 727.5,536.5C 724.982,534.643 724.982,532.81 727.5,531C 735.767,528.61 743.767,529.277 751.5,533C 753.373,534.704 755.04,536.537 756.5,538.5 Z"/></g>
<g><path style="opacity:1" fill="#efbfb9" d="M 756.5,538.5 C 757.966,539.347 758.8,540.68 759,542.5C 759.5,565.498 759.667,588.498 759.5,611.5C 765.167,611.5 770.833,611.5 776.5,611.5C 770.69,612.49 764.69,612.823 758.5,612.5C 758.667,589.498 758.5,566.498 758,543.5C 757.392,541.846 756.892,540.179 756.5,538.5 Z"/></g>
<g><path style="opacity:1" fill="#da7265" d="M 727.5,536.5 C 728.793,537.842 729.626,539.509 730,541.5C 730.83,565.004 730.663,588.337 729.5,611.5C 729.667,588.498 729.5,565.498 729,542.5C 727.872,540.655 727.372,538.655 727.5,536.5 Z"/></g>
<g><path style="opacity:1" fill="#e79f95" d="M 839.5,610.5 C 840.648,614.981 840.815,619.648 840,624.5C 839.478,627.281 838.311,629.615 836.5,631.5C 839.072,624.759 840.072,617.759 839.5,610.5 Z"/></g>
<g><path style="opacity:1" fill="#faedec" d="M 711.5,636.5 C 717.5,636.5 723.5,636.5 729.5,636.5C 729.5,667.167 729.5,697.833 729.5,728.5C 729.167,728.5 728.833,728.5 728.5,728.5C 728.5,698.167 728.5,667.833 728.5,637.5C 722.642,637.822 716.975,637.489 711.5,636.5 Z"/></g>
<g><path style="opacity:1" fill="#f1cac5" d="M 802.5,636.5 C 788.343,637.496 774.01,637.829 759.5,637.5C 759.183,680.53 759.516,723.53 760.5,766.5C 759.778,766.082 759.278,765.416 759,764.5C 758.5,721.835 758.333,679.168 758.5,636.5C 773.167,636.5 787.833,636.5 802.5,636.5 Z"/></g>
<g><path style="opacity:1" fill="#edb5ae" d="M 356.5,643.5 C 348.03,640.429 339.363,639.762 330.5,641.5C 330.611,640.883 330.944,640.383 331.5,640C 337.5,639.333 343.5,639.333 349.5,640C 352.281,640.522 354.615,641.689 356.5,643.5 Z"/></g>
<g><path style="opacity:1" fill="#eaa9a1" d="M 531.5,640.5 C 533.473,639.837 535.639,639.504 538,639.5C 541.477,639.328 544.644,639.994 547.5,641.5C 542.203,640.725 536.87,640.392 531.5,640.5 Z"/></g>
<g><path style="opacity:1" fill="#c21c07" d="M 356.5,643.5 C 365.166,648.501 370.833,655.835 373.5,665.5C 373.966,671.491 374.299,677.491 374.5,683.5C 373.475,686.974 372.808,690.64 372.5,694.5C 372.5,694.833 372.5,695.167 372.5,695.5C 371.129,697.936 370.129,700.603 369.5,703.5C 360.14,726.863 343.473,742.197 319.5,749.5C 322.978,761.81 330.978,769.643 343.5,773C 369.403,776.552 386.737,766.052 395.5,741.5C 397.834,739.824 398.834,737.491 398.5,734.5C 399.15,732.565 399.483,730.565 399.5,728.5C 401.074,726.898 401.741,724.898 401.5,722.5C 403.766,717.204 407.766,715.37 413.5,717C 416.603,718.439 419.436,720.273 422,722.5C 422.698,729.923 422.198,737.256 420.5,744.5C 419.129,746.936 418.129,749.603 417.5,752.5C 417.5,752.833 417.5,753.167 417.5,753.5C 415.935,755.509 414.935,757.843 414.5,760.5C 407.017,774.807 396.017,785.474 381.5,792.5C 379.033,792.755 377.033,793.755 375.5,795.5C 336.165,806.153 307.498,793.486 289.5,757.5C 288.003,752.341 286.336,747.341 284.5,742.5C 283.597,739.609 283.264,736.609 283.5,733.5C 283.41,723.482 283.743,713.482 284.5,703.5C 285.167,700.833 285.833,698.167 286.5,695.5C 287.924,693.485 288.59,691.152 288.5,688.5C 294.726,668.773 306.726,653.607 324.5,643C 326.518,642.495 328.518,641.995 330.5,641.5C 339.363,639.762 348.03,640.429 356.5,643.5 Z"/></g>
<g><path style="opacity:1" fill="#e28e84" d="M 112.5,644.5 C 108.766,644.323 105.099,644.656 101.5,645.5C 101.611,644.883 101.944,644.383 102.5,644C 106.027,643.192 109.36,643.359 112.5,644.5 Z"/></g>
<g><path style="opacity:1" fill="#c21c07" d="M 192.5,653.5 C 192.892,655.179 193.392,656.846 194,658.5C 194.168,690.669 194.668,722.669 195.5,754.5C 196.684,771.16 205.351,776.993 221.5,772C 225.112,769.221 227.778,765.721 229.5,761.5C 230.887,759.123 231.721,756.457 232,753.5C 232.831,720.664 232.664,687.997 231.5,655.5C 229.017,647.142 232.184,643.475 241,644.5C 249.296,644.062 255.463,647.396 259.5,654.5C 260.47,685.809 260.803,717.142 260.5,748.5C 260.331,753.181 259.998,757.848 259.5,762.5C 258.076,764.515 257.41,766.848 257.5,769.5C 256.463,770.93 255.796,772.597 255.5,774.5C 249.258,788.228 238.591,796.061 223.5,798C 205.49,801.057 190.823,795.557 179.5,781.5C 172.486,790.844 163.152,796.344 151.5,798C 121.337,801.524 104.17,788.357 100,758.5C 99.8325,723.331 99.3325,688.331 98.5,653.5C 98.448,651.097 98.7814,648.764 99.5,646.5C 100.167,646.167 100.833,645.833 101.5,645.5C 105.099,644.656 108.766,644.323 112.5,644.5C 117.981,645.402 122.315,648.069 125.5,652.5C 125.427,654.027 126.094,655.027 127.5,655.5C 127.333,687.835 127.5,720.168 128,752.5C 128.263,757.005 129.263,761.339 131,765.5C 132.406,768.409 134.572,770.409 137.5,771.5C 137.918,772.222 138.584,772.722 139.5,773C 144.02,773.814 148.354,773.647 152.5,772.5C 155.959,771.564 158.793,769.564 161,766.5C 162.941,762.751 164.274,758.751 165,754.5C 165.62,718.81 165.62,683.143 165,647.5C 168.792,643.872 173.292,642.706 178.5,644C 184.672,645.015 189.339,648.181 192.5,653.5 Z"/></g>
<g><path style="opacity:1" fill="#dd7d70" d="M 99.5,646.5 C 98.7814,648.764 98.448,651.097 98.5,653.5C 97.8529,652.726 97.5195,651.726 97.5,650.5C 97.3402,648.645 98.0069,647.312 99.5,646.5 Z"/></g>
<g><path style="opacity:1" fill="#d96959" d="M 694.5,647.5 C 695.117,647.611 695.617,647.944 696,648.5C 696.495,650.473 696.662,652.473 696.5,654.5C 695.593,652.343 694.927,650.01 694.5,647.5 Z"/></g>
<g><path style="opacity:1" fill="#e49387" d="M 125.5,652.5 C 126.906,652.973 127.573,653.973 127.5,655.5C 126.094,655.027 125.427,654.027 125.5,652.5 Z"/></g>
<g><path style="opacity:1" fill="#f3d1cd" d="M 192.5,653.5 C 193.966,654.347 194.8,655.68 195,657.5C 195.5,689.832 195.667,722.165 195.5,754.5C 194.668,722.669 194.168,690.669 194,658.5C 193.392,656.846 192.892,655.179 192.5,653.5 Z"/></g>
<g><path style="opacity:1" fill="#efc5c0" d="M 259.5,654.5 C 260.268,655.263 260.768,656.263 261,657.5C 261.831,688.003 261.664,718.336 260.5,748.5C 260.803,717.142 260.47,685.809 259.5,654.5 Z"/></g>
<g><path style="opacity:1" fill="#d56153" d="M 231.5,655.5 C 232.664,687.997 232.831,720.664 232,753.5C 231.721,756.457 230.887,759.123 229.5,761.5C 229.804,758.478 230.304,755.478 231,752.5C 231.5,720.168 231.667,687.835 231.5,655.5 Z"/></g>
<g><path style="opacity:1" fill="#fefaf9" d="M 316.5,728.5 C 315.18,725.572 314.514,722.239 314.5,718.5C 314.907,710.803 315.574,703.136 316.5,695.5C 316.232,693.901 316.566,692.568 317.5,691.5C 319.411,687.767 320.744,683.767 321.5,679.5C 324.332,670.472 330.332,665.972 339.5,666C 342,667.167 343.833,669 345,671.5C 346.662,696.175 337.162,715.175 316.5,728.5 Z"/></g>
<g><path style="opacity:1" fill="#fefbfa" d="M 511.5,728.5 C 510.395,718.659 510.395,708.659 511.5,698.5C 512.167,695.833 512.833,693.167 513.5,690.5C 514.924,688.485 515.59,686.152 515.5,683.5C 517.395,676.207 521.395,670.374 527.5,666C 532.937,664.345 537.103,665.845 540,670.5C 542.219,691.847 535.386,709.68 519.5,724C 516.941,725.777 514.274,727.277 511.5,728.5 Z"/></g>
<g><path style="opacity:1" fill="#e8a299" d="M 373.5,665.5 C 374.97,668.886 375.637,672.553 375.5,676.5C 375.497,679.025 375.163,681.359 374.5,683.5C 374.299,677.491 373.966,671.491 373.5,665.5 Z"/></g>
<g><path style="opacity:1" fill="#ebaba2" d="M 321.5,679.5 C 320.744,683.767 319.411,687.767 317.5,691.5C 317.861,687.085 319.194,683.085 321.5,679.5 Z"/></g>
<g><path style="opacity:1" fill="#e8a49b" d="M 515.5,683.5 C 515.59,686.152 514.924,688.485 513.5,690.5C 513.41,687.848 514.076,685.515 515.5,683.5 Z"/></g>
<g><path style="opacity:1" fill="#db7264" d="M 603.5,686.5 C 603.573,688.027 602.906,689.027 601.5,689.5C 601.427,687.973 602.094,686.973 603.5,686.5 Z"/></g>
<g><path style="opacity:1" fill="#e5998f" d="M 374.5,683.5 C 374.884,687.489 374.217,691.155 372.5,694.5C 372.808,690.64 373.475,686.974 374.5,683.5 Z"/></g>
<g><path style="opacity:1" fill="#dd7a6c" d="M 484.5,687.5 C 484.277,691.162 483.277,694.495 481.5,697.5C 481.723,693.838 482.723,690.505 484.5,687.5 Z"/></g>
<g><path style="opacity:1" fill="#ecb0a8" d="M 570.5,683.5 C 570.664,686.187 570.497,688.854 570,691.5C 569.617,692.056 569.117,692.389 568.5,692.5C 568.676,689.273 569.343,686.273 570.5,683.5 Z"/></g>
<g><path style="opacity:1" fill="#db7365" d="M 288.5,688.5 C 288.59,691.152 287.924,693.485 286.5,695.5C 286.41,692.848 287.076,690.515 288.5,688.5 Z"/></g>
<g><path style="opacity:1" fill="#e7a39b" d="M 660.5,681.5 C 661.789,706.317 661.789,730.984 660.5,755.5C 660.402,730.647 660.402,705.981 660.5,681.5 Z"/></g>
<g><path style="opacity:1" fill="#e79d93" d="M 372.5,695.5 C 372.655,698.716 371.655,701.383 369.5,703.5C 370.129,700.603 371.129,697.936 372.5,695.5 Z"/></g>
<g><path style="opacity:1" fill="#e79c92" d="M 567.5,697.5 C 567.655,700.716 566.655,703.383 564.5,705.5C 565.129,702.603 566.129,699.936 567.5,697.5 Z"/></g>
<g><path style="opacity:1" fill="#d86958" d="M 597.5,698.5 C 596.411,703.767 594.744,708.767 592.5,713.5C 593.194,708.085 594.86,703.085 597.5,698.5 Z"/></g>
<g><path style="opacity:1" fill="#efbab2" d="M 626.5,702.5 C 625.975,706.533 624.642,710.2 622.5,713.5C 623.025,709.467 624.358,705.8 626.5,702.5 Z"/></g>
<g><path style="opacity:1" fill="#eaaca5" d="M 511.5,698.5 C 510.395,708.659 510.395,718.659 511.5,728.5C 511.44,729.043 511.107,729.376 510.5,729.5C 510.167,725.333 509.833,721.167 509.5,717C 509.326,710.594 509.993,704.427 511.5,698.5 Z"/></g>
<g><path style="opacity:1" fill="#e59a91" d="M 622.5,713.5 C 622.59,716.152 621.924,718.485 620.5,720.5C 620.41,717.848 621.076,715.515 622.5,713.5 Z"/></g>
<g><path style="opacity:1" fill="#e5978e" d="M 316.5,695.5 C 315.574,703.136 314.907,710.803 314.5,718.5C 314.514,722.239 315.18,725.572 316.5,728.5C 315.791,729.404 314.791,729.737 313.5,729.5C 313.334,721.826 313.5,714.159 314,706.5C 314.419,702.608 315.252,698.942 316.5,695.5 Z"/></g>
<g><path style="opacity:1" fill="#d66253" d="M 481.5,697.5 C 479.927,709.438 479.26,721.438 479.5,733.5C 477.882,721.39 478.548,709.39 481.5,697.5 Z"/></g>
<g><path style="opacity:1" fill="#e0867b" d="M 284.5,703.5 C 283.743,713.482 283.41,723.482 283.5,733.5C 282.834,729.681 282.501,725.681 282.5,721.5C 282.333,715.26 283,709.26 284.5,703.5 Z"/></g>
<g><path style="opacity:1" fill="#dd7869" d="M 401.5,722.5 C 401.741,724.898 401.074,726.898 399.5,728.5C 399.259,726.102 399.926,724.102 401.5,722.5 Z"/></g>
<g><path style="opacity:1" fill="#e5958a" d="M 816.5,729.5 C 817.906,729.973 818.573,730.973 818.5,732.5C 817.094,732.027 816.427,731.027 816.5,729.5 Z"/></g>
<g><path style="opacity:1" fill="#db7365" d="M 798.5,727.5 C 798.741,729.898 798.074,731.898 796.5,733.5C 796.259,731.102 796.926,729.102 798.5,727.5 Z"/></g>
<g><path style="opacity:1" fill="#dc786b" d="M 728.5,728.5 C 728.833,728.5 729.167,728.5 729.5,728.5C 729.59,731.152 728.924,733.485 727.5,735.5C 727.674,733.139 728.007,730.806 728.5,728.5 Z"/></g>
<g><path style="opacity:1" fill="#e8a59c" d="M 818.5,732.5 C 820.028,737.739 819.361,742.739 816.5,747.5C 817.902,742.616 818.569,737.616 818.5,732.5 Z"/></g>
<g><path style="opacity:1" fill="#eaaea6" d="M 620.5,722.5 C 619.299,733.842 619.299,745.176 620.5,756.5C 618.948,751.599 618.281,746.432 618.5,741C 618.37,734.601 619.037,728.434 620.5,722.5 Z"/></g>
<g><path style="opacity:1" fill="#d86655" d="M 398.5,734.5 C 398.834,737.491 397.834,739.824 395.5,741.5C 395.935,738.843 396.935,736.509 398.5,734.5 Z"/></g>
<g><path style="opacity:1" fill="#e49388" d="M 284.5,742.5 C 286.336,747.341 288.003,752.341 289.5,757.5C 286.473,753.086 284.806,748.086 284.5,742.5 Z"/></g>
<g><path style="opacity:1" fill="#e8a39a" d="M 420.5,744.5 C 420.655,747.716 419.655,750.383 417.5,752.5C 418.129,749.603 419.129,746.936 420.5,744.5 Z"/></g>
<g><path style="opacity:1" fill="#de7c6e" d="M 724.5,747.5 C 724.655,750.716 723.655,753.383 721.5,755.5C 722.129,752.603 723.129,749.936 724.5,747.5 Z"/></g>
<g><path style="opacity:1" fill="#db7263" d="M 792.5,749.5 C 792.88,751.698 792.213,753.365 790.5,754.5C 790.796,752.597 791.463,750.93 792.5,749.5 Z"/></g>
<g><path style="opacity:1" fill="#e6978c" d="M 482.5,750.5 C 483.537,751.93 484.204,753.597 484.5,755.5C 482.787,754.365 482.12,752.698 482.5,750.5 Z"/></g>
<g><path style="opacity:1" fill="#efbab3" d="M 417.5,753.5 C 417.834,756.491 416.834,758.824 414.5,760.5C 414.935,757.843 415.935,755.509 417.5,753.5 Z"/></g>
<g><path style="opacity:1" fill="#edb2aa" d="M 814.5,753.5 C 814.834,756.491 813.834,758.824 811.5,760.5C 811.935,757.843 812.935,755.509 814.5,753.5 Z"/></g>
<g><path style="opacity:1" fill="#e69b91" d="M 259.5,762.5 C 259.59,765.152 258.924,767.485 257.5,769.5C 257.41,766.848 258.076,764.515 259.5,762.5 Z"/></g>
<g><path style="opacity:1" fill="#f2cbc6" d="M 137.5,771.5 C 142.463,772.254 147.463,772.587 152.5,772.5C 148.354,773.647 144.02,773.814 139.5,773C 138.584,772.722 137.918,772.222 137.5,771.5 Z"/></g>
<g><path style="opacity:1" fill="#e8a096" d="M 257.5,769.5 C 257.88,771.698 257.213,773.365 255.5,774.5C 255.796,772.597 256.463,770.93 257.5,769.5 Z"/></g>
<g><path style="opacity:1" fill="#f3cfcb" d="M 535.5,771.5 C 544.5,772.833 553.5,772.833 562.5,771.5C 561.737,772.268 560.737,772.768 559.5,773C 552.5,773.667 545.5,773.667 538.5,773C 537.263,772.768 536.263,772.268 535.5,771.5 Z"/></g>
<g><path style="opacity:1" fill="#f3ceca" d="M 627.5,768.5 C 629.697,769.845 632.03,771.011 634.5,772C 638.152,772.499 641.818,772.665 645.5,772.5C 641.354,773.647 637.02,773.814 632.5,773C 630.34,772.004 628.673,770.504 627.5,768.5 Z"/></g>
<g><path style="opacity:1" fill="#f0bab2" d="M 381.5,792.5 C 379.967,794.245 377.967,795.245 375.5,795.5C 377.033,793.755 379.033,792.755 381.5,792.5 Z"/></g>
<g><path style="opacity:1" fill="#cf4a38" d="M 683.5,796.5 C 689.797,797.32 696.131,797.653 702.5,797.5C 700.022,798.164 697.355,798.497 694.5,798.5C 690.531,798.706 686.865,798.039 683.5,796.5 Z"/></g>
</svg>
