<?xml version="1.0" standalone="no"?>
<!DOCTYPE svg PUBLIC "-//W3C//DTD SVG 20010904//EN"
 "http://www.w3.org/TR/2001/REC-SVG-20010904/DTD/svg10.dtd">
<svg version="1.0" xmlns="http://www.w3.org/2000/svg"
 width="880.000000pt" height="880.000000pt" viewBox="0 0 880.000000 880.000000"
 preserveAspectRatio="xMidYMid meet">

<g transform="translate(0.000000,880.000000) scale(0.100000,-0.100000)"
fill="#C21804" stroke="none">
<path d="M4050 7026 c-92 -20 -220 -96 -220 -131 0 -6 18 -19 40 -29 48 -21
86 -68 108 -133 15 -43 17 -169 23 -1223 4 -795 9 -1190 17 -1220 60 -249 184
-394 379 -445 31 -8 81 -15 110 -15 30 0 55 -5 59 -12 27 -44 -21 -235 -91
-358 -88 -155 -225 -310 -363 -410 -157 -113 -368 -210 -545 -251 -131 -31
-422 -38 -568 -14 -691 112 -1324 594 -1603 1220 -94 210 -131 397 -124 633 4
138 8 167 32 237 59 173 157 281 300 331 153 55 467 25 721 -68 98 -36 247
-114 335 -176 92 -65 247 -224 304 -311 109 -167 154 -304 163 -497 7 -142
-10 -237 -57 -323 -17 -30 -30 -67 -30 -83 0 -25 7 -32 43 -48 108 -48 293
-71 402 -51 183 34 321 182 360 384 51 270 -24 619 -196 916 -371 637 -1091
1059 -1814 1062 -158 1 -224 -5 -340 -31 -737 -168 -1112 -874 -944 -1775 117
-627 539 -1247 1144 -1680 395 -282 914 -485 1367 -534 139 -16 372 -13 523 4
370 43 708 188 977 420 87 74 224 233 296 342 26 39 50 72 53 72 4 1 25 -30
48 -68 222 -375 586 -649 1016 -766 294 -80 689 -69 977 26 255 84 526 271
687 473 260 327 391 725 391 1192 0 344 -52 621 -171 908 -164 393 -394 707
-704 955 -222 178 -284 211 -400 211 -126 0 -252 -57 -355 -160 -85 -84 -120
-153 -120 -236 0 -53 5 -68 33 -110 26 -39 50 -57 132 -102 315 -170 551 -452
693 -827 84 -222 107 -352 106 -615 0 -189 -3 -213 -27 -303 -27 -102 -93
-251 -144 -325 -81 -118 -235 -242 -369 -296 -178 -72 -470 -75 -673 -6 -282
95 -503 317 -616 616 -29 78 -68 228 -85 324 -6 36 -13 75 -15 88 -5 20 -2 22
32 22 21 0 66 7 101 15 155 37 260 124 335 277 86 175 80 83 87 1408 5 1101 7
1178 23 1222 19 47 85 118 111 118 7 0 19 7 26 15 19 23 -18 58 -105 101 -189
93 -308 44 -368 -152 -21 -68 -21 -82 -27 -1279 -5 -1126 -7 -1214 -23 -1263
-39 -115 -133 -170 -244 -143 -54 14 -87 40 -113 91 -45 88 -44 54 -49 1327
-6 1210 -6 1212 -27 1240 -11 15 -43 42 -69 58 -44 27 -57 30 -131 30 -63 0
-87 -4 -99 -16 -15 -15 -16 -127 -15 -1247 1 -1083 -1 -1238 -15 -1298 -31
-138 -83 -189 -190 -189 -116 0 -182 68 -205 210 -6 36 -10 508 -10 1195 -1
1229 -1 1229 -55 1347 -53 117 -120 154 -235 129z"/>
</g>
</svg>
