<?xml version="1.0" standalone="no"?>
<!DOCTYPE svg PUBLIC "-//W3C//DTD SVG 20010904//EN"
 "http://www.w3.org/TR/2001/REC-SVG-20010904/DTD/svg10.dtd">
<svg version="1.0" xmlns="http://www.w3.org/2000/svg"
 width="1080.000000pt" height="1080.000000pt" viewBox="0 0 1080.000000 1080.000000"
 preserveAspectRatio="xMidYMid meet">

<g transform="translate(0.000000,1080.000000) scale(0.100000,-0.100000)"
fill="#C21804" stroke="none">
<path d="M5085 10033 c-597 -50 -1061 -165 -1570 -387 -794 -348 -1503 -948
-1990 -1686 -399 -604 -635 -1241 -736 -1990 -26 -196 -38 -721 -20 -935 87
-1049 515 -2029 1214 -2780 111 -120 345 -344 445 -426 740 -609 1596 -962
2551 -1054 180 -17 621 -20 791 -5 458 42 850 128 1240 272 1559 579 2698
1957 2969 3593 47 282 55 396 56 755 0 350 -7 454 -45 711 -204 1357 -1013
2563 -2197 3278 -625 376 -1325 599 -2048 651 -128 9 -565 11 -660 3z m-205
-1409 c42 -17 77 -64 103 -136 8 -24 13 -271 17 -893 5 -855 5 -860 27 -907
25 -55 63 -78 128 -78 38 0 52 5 75 28 61 62 61 49 60 1007 -1 994 -11 900 93
893 61 -5 95 -23 131 -72 21 -27 21 -38 26 -889 5 -793 6 -865 22 -894 27 -49
64 -73 115 -73 64 0 101 23 126 78 22 47 22 52 27 912 5 811 7 868 24 913 22
58 73 112 113 120 50 10 124 -15 196 -65 36 -26 34 -39 -10 -63 -21 -12 -45
-36 -57 -60 -21 -39 -21 -54 -26 -880 -5 -824 -6 -841 -27 -902 -54 -160 -166
-261 -310 -279 -47 -6 -52 -9 -48 -28 41 -201 68 -288 116 -375 125 -223 323
-347 575 -359 206 -9 336 38 465 168 87 88 136 176 169 305 25 97 27 292 5
421 -60 342 -278 659 -546 795 -102 51 -132 109 -105 204 34 114 172 214 310
223 90 6 105 -1 249 -108 224 -167 371 -348 501 -620 98 -206 140 -365 155
-597 15 -224 -9 -425 -71 -603 -133 -376 -395 -621 -767 -717 -134 -34 -338
-42 -481 -19 -330 56 -630 251 -803 523 -29 45 -55 82 -58 83 -4 0 -21 -21
-38 -47 -57 -90 -176 -217 -266 -285 -165 -125 -370 -211 -579 -243 -151 -24
-438 -16 -581 15 -227 48 -518 171 -715 300 -276 182 -513 426 -666 687 -181
307 -258 618 -233 937 36 445 279 750 679 852 110 28 368 26 502 -4 310 -68
564 -207 783 -426 252 -253 374 -516 378 -809 2 -156 -33 -249 -121 -329 -67
-60 -102 -72 -222 -72 -115 0 -193 19 -226 55 -18 20 -18 22 9 69 56 100 59
295 7 432 -33 87 -101 190 -174 263 -181 181 -435 286 -691 288 -102 1 -129
-2 -176 -21 -173 -69 -254 -300 -204 -583 89 -508 596 -990 1150 -1094 177
-33 411 -17 559 39 164 62 276 136 392 259 111 117 194 282 194 384 0 32 -2
33 -39 33 -68 0 -164 36 -215 81 -52 46 -86 98 -118 185 -22 59 -23 61 -28
904 -6 933 -2 886 -69 943 -18 15 -37 27 -42 27 -5 0 -9 7 -9 15 0 20 87 77
140 91 59 16 53 16 100 -2z m2978 -3721 c14 -11 35 -32 46 -47 20 -26 21 -43
24 -318 l3 -291 302 8 c178 4 307 11 314 17 27 22 43 1 43 -55 0 -64 -15 -113
-43 -144 -20 -23 -22 -23 -319 -23 l-298 0 0 -520 c0 -445 2 -525 15 -550 19
-36 43 -50 89 -50 77 0 142 96 189 278 31 116 47 142 90 142 49 0 107 -67 107
-122 0 -36 -54 -189 -92 -260 -45 -85 -140 -181 -214 -215 -73 -35 -182 -39
-256 -10 -48 19 -128 96 -128 123 0 22 -9 17 -69 -38 -84 -77 -147 -103 -246
-102 -97 1 -141 18 -199 78 l-42 43 -42 -37 c-146 -130 -360 -113 -485 37
l-34 42 -47 -39 c-127 -105 -332 -153 -494 -115 -183 43 -332 180 -401 368
-24 67 -26 83 -26 242 0 166 1 172 33 265 85 245 240 399 412 408 129 8 208
-36 260 -142 121 -244 -59 -615 -354 -732 -26 -10 -50 -25 -53 -31 -7 -19 33
-78 80 -118 72 -62 196 -82 303 -50 114 34 214 152 214 251 0 138 49 332 111
441 138 240 364 382 612 383 74 0 79 -1 114 -33 31 -29 37 -41 41 -88 5 -71
-8 -84 -81 -76 -240 23 -462 -158 -532 -438 -12 -45 -18 -111 -18 -185 -1 -96
2 -122 20 -160 37 -80 79 -110 152 -110 52 0 99 34 139 100 l33 55 -2 298 c-4
343 -6 333 81 330 56 -1 103 -24 134 -66 20 -27 21 -43 26 -344 l5 -315 33
-29 c46 -41 90 -40 141 6 46 42 82 119 116 249 25 94 25 104 25 466 l0 370
-106 0 c-126 0 -161 13 -193 70 -23 42 -31 114 -13 132 6 6 66 9 161 7 l151
-4 0 280 c-1 218 -4 289 -15 320 -19 52 -19 52 13 64 40 16 140 6 170 -16z
m-3206 -916 c200 -117 176 -480 -46 -703 -59 -59 -142 -115 -208 -140 -60 -24
-62 -27 -39 -72 50 -98 157 -149 294 -139 164 11 269 117 328 333 25 93 35
110 70 124 33 14 69 5 102 -25 35 -33 40 -56 27 -123 -56 -281 -214 -455 -463
-506 -100 -21 -158 -20 -251 4 -221 56 -373 223 -417 458 -17 90 -6 288 21
381 58 203 183 364 327 422 72 29 194 22 255 -14z m-1969 -11 c18 -7 43 -26
57 -40 l25 -28 5 -426 c5 -411 6 -429 27 -474 25 -55 62 -78 125 -78 48 0 99
26 121 62 33 52 38 127 36 552 -2 399 -2 419 16 432 48 35 164 1 200 -58 19
-31 20 -57 25 -458 4 -380 7 -429 23 -460 50 -101 198 -92 252 15 19 38 20 62
21 494 2 425 3 456 20 468 26 19 92 16 142 -7 34 -15 47 -29 63 -66 20 -44 21
-60 16 -457 -3 -331 -7 -422 -19 -463 -53 -178 -159 -256 -348 -258 -83 -1
-102 2 -152 26 -31 14 -76 44 -101 67 l-44 40 -34 -35 c-46 -48 -143 -94 -212
-101 -67 -7 -165 11 -222 39 -66 34 -100 65 -130 119 -52 97 -55 120 -55 564
0 246 -5 428 -11 455 -10 42 -9 46 16 67 30 27 88 30 138 9z"/>
<path d="M6025 3792 c-67 -41 -120 -202 -132 -396 l-6 -109 43 24 c60 34 138
123 171 195 46 102 56 245 19 289 -17 20 -59 19 -95 -3z"/>
<path d="M4428 3795 c-54 -30 -100 -139 -123 -295 -17 -110 -19 -186 -5 -195
32 -19 156 103 200 197 31 67 54 191 44 236 -16 69 -56 89 -116 57z"/>
</g>
</svg>
